<?xml version="1.0" encoding="UTF-8" standalone="no"?>
<!-- Created with Inkscape (http://www.inkscape.org/) -->

<svg
   width="50.799999mm"
   height="128.5mm"
   viewBox="0 0 50.799999 128.5"
   version="1.1"
   id="svg5"
   inkscape:version="1.2.2 (b0a8486, 2022-12-01)"
   sodipodi:docname="memorypad10.svg"
   xmlns:inkscape="http://www.inkscape.org/namespaces/inkscape"
   xmlns:sodipodi="http://sodipodi.sourceforge.net/DTD/sodipodi-0.dtd"
   xmlns:xlink="http://www.w3.org/1999/xlink"
   xmlns="http://www.w3.org/2000/svg"
   xmlns:svg="http://www.w3.org/2000/svg">
  <sodipodi:namedview
     id="namedview7"
     pagecolor="#ffffff"
     bordercolor="#000000"
     borderopacity="0.25"
     inkscape:showpageshadow="2"
     inkscape:pageopacity="0.0"
     inkscape:pagecheckerboard="0"
     inkscape:deskcolor="#d1d1d1"
     inkscape:document-units="mm"
     showgrid="false"
     inkscape:zoom="2.0841622"
     inkscape:cx="65.014134"
     inkscape:cy="284.04699"
     inkscape:window-width="1512"
     inkscape:window-height="916"
     inkscape:window-x="0"
     inkscape:window-y="38"
     inkscape:window-maximized="0"
     inkscape:current-layer="layer1" />
  <defs
     id="defs2">
    <linearGradient
       inkscape:collect="always"
       id="linearGradient5580">
      <stop
         style="stop-color:#323232;stop-opacity:1;"
         offset="0"
         id="stop5576" />
      <stop
         style="stop-color:#111111;stop-opacity:1;"
         offset="1"
         id="stop5578" />
    </linearGradient>
    <radialGradient
       inkscape:collect="always"
       xlink:href="#linearGradient5580"
       id="radialGradient5582"
       cx="25.4"
       cy="45.879999"
       fx="25.4"
       fy="45.879999"
       r="23"
       gradientUnits="userSpaceOnUse" />
    <filter
       id="filter0_d_62_1219"
       x="2.23982"
       y="22.719999"
       width="46.559898"
       height="46.560001"
       filterUnits="userSpaceOnUse"
       color-interpolation-filters="sRGB">
      <feFlood
         flood-opacity="0"
         result="BackgroundImageFix"
         id="feFlood308" />
      <feColorMatrix
         in="SourceAlpha"
         type="matrix"
         values="0 0 0 0 0 0 0 0 0 0 0 0 0 0 0 0 0 0 127 0"
         result="hardAlpha"
         id="feColorMatrix310" />
      <feOffset
         dy="0.08"
         id="feOffset312" />
      <feGaussianBlur
         stdDeviation="0.04"
         id="feGaussianBlur314" />
      <feComposite
         in2="hardAlpha"
         operator="out"
         id="feComposite316" />
      <feColorMatrix
         type="matrix"
         values="0 0 0 0 0 0 0 0 0 0 0 0 0 0 0 0 0 0 0.25 0"
         id="feColorMatrix318" />
      <feBlend
         mode="normal"
         in2="BackgroundImageFix"
         result="effect1_dropShadow_62_1219"
         id="feBlend320" />
      <feBlend
         mode="normal"
         in="SourceGraphic"
         in2="effect1_dropShadow_62_1219"
         result="shape"
         id="feBlend322" />
    </filter>
  </defs>
  <g
     inkscape:label="Layer 1"
     inkscape:groupmode="layer"
     id="layer1">
    <rect
       style="fill:#dcdcdc;stroke-width:0.465;stop-color:#000000"
       id="rect983"
       width="50.799999"
       height="128.5"
       x="0"
       y="0"
       inkscape:label="BG" />
    <rect
       style="fill:url(#radialGradient5582);fill-opacity:1;stroke-width:0.465;stop-color:#000000"
       id="rect4018"
       width="46"
       height="46"
       x="2.3999996"
       y="22.879999"
       rx="4"
       inkscape:label="Pad BG" />
    <rect
       style="fill:#262626;fill-opacity:1;stroke-width:0.465;stop-color:#000000"
       id="rect11412"
       width="16"
       height="18"
       x="6"
       y="101"
       rx="4"
       inkscape:label="X Out BG" />
    <rect
       style="fill:#262626;fill-opacity:1;stroke-width:0.465;stop-color:#000000"
       id="rect15046"
       width="16"
       height="18"
       x="29"
       y="101"
       rx="4"
       inkscape:label="Y Out BG" />
    <rect
       style="fill:#b1b1b1;fill-opacity:1;stroke-width:0.465;stop-color:#000000"
       id="rect28032"
       width="0.16"
       height="36"
       x="25.32"
       y="79.81015"
       inkscape:label="Separator" />
    <g
       aria-label="SPEED"
       id="text18020"
       style="font-weight:600;font-size:3.175px;font-family:'SF Compact Rounded';-inkscape-font-specification:'SF Compact Rounded Semi-Bold';letter-spacing:0.264583px;fill:#262626;stroke-width:0.465;stop-color:#000000"
       inkscape:label="SPEED">
      <path
         d="m 32.665078,19.583401 c 0,0.08837 0.05271,0.182935 0.150378,0.272852 0.139527,0.131775 0.382923,0.207739 0.657325,0.207739 0.505395,0 0.826306,-0.255798 0.826306,-0.658875 0,-0.311608 -0.182935,-0.499194 -0.570508,-0.587561 l -0.31781,-0.07596 c -0.196887,-0.04496 -0.293005,-0.137976 -0.293005,-0.269751 0,-0.164331 0.141076,-0.269751 0.361218,-0.269751 0.182934,0 0.325561,0.07906 0.420129,0.220142 0.04961,0.06201 0.10542,0.08992 0.170532,0.08992 0.100769,0 0.168982,-0.06666 0.168982,-0.164331 0,-0.09767 -0.05116,-0.196888 -0.147278,-0.283704 -0.139526,-0.128674 -0.365869,-0.201538 -0.618566,-0.201538 -0.471289,0 -0.778247,0.252698 -0.778247,0.641821 0,0.306958 0.181384,0.500745 0.545703,0.584461 l 0.316259,0.07751 c 0.229444,0.05426 0.328663,0.142627 0.328663,0.285254 0,0.172083 -0.141077,0.271301 -0.389124,0.271301 -0.184485,0 -0.342615,-0.07131 -0.461987,-0.209289 -0.07441,-0.08062 -0.131775,-0.110071 -0.201538,-0.110071 -0.09457,0 -0.167432,0.07441 -0.167432,0.179834 z"
         id="path1046" />
      <path
         d="m 34.82877,20.034536 c 0.133325,0 0.21084,-0.08371 0.21084,-0.226342 v -0.514698 h 0.401526 c 0.454235,0 0.74104,-0.258899 0.74104,-0.696081 0,-0.418579 -0.283704,-0.694531 -0.723987,-0.694531 h -0.534851 c -0.218592,0 -0.302307,0.08527 -0.302307,0.305407 v 1.599903 c 0,0.142627 0.07596,0.226342 0.207739,0.226342 z m 0.21084,-1.066601 v -0.730188 h 0.365869 c 0.229443,0 0.359668,0.133325 0.359668,0.365869 0,0.269751 -0.131775,0.364319 -0.457337,0.364319 z"
         id="path1048" />
      <path
         d="m 36.459161,19.750833 c 0,0.179834 0.09147,0.2682 0.279053,0.2682 h 0.931726 c 0.110071,0 0.181384,-0.06666 0.181384,-0.170532 0,-0.103869 -0.07131,-0.172082 -0.181384,-0.172082 h -0.7953 v -0.567408 h 0.756543 c 0.09922,0 0.165881,-0.06201 0.165881,-0.15968 0,-0.09767 -0.06666,-0.16123 -0.165881,-0.16123 H 36.87464 v -0.542603 h 0.799951 c 0.10542,0 0.176733,-0.06821 0.176733,-0.170532 0,-0.102319 -0.07131,-0.172082 -0.176733,-0.172082 h -0.936377 c -0.187586,0 -0.279053,0.08992 -0.279053,0.2682 z"
         id="path1050" />
      <path
         d="m 38.188771,19.750833 c 0,0.179834 0.09147,0.2682 0.279052,0.2682 h 0.931727 c 0.11007,0 0.181384,-0.06666 0.181384,-0.170532 0,-0.103869 -0.07131,-0.172082 -0.181384,-0.172082 h -0.795301 v -0.567408 h 0.756543 c 0.09922,0 0.165882,-0.06201 0.165882,-0.15968 0,-0.09767 -0.06666,-0.16123 -0.165882,-0.16123 H 38.604249 V 18.245498 H 39.4042 c 0.10542,0 0.176734,-0.06821 0.176734,-0.170532 0,-0.102319 -0.07131,-0.172082 -0.176734,-0.172082 h -0.936377 c -0.187585,0 -0.279052,0.08992 -0.279052,0.2682 z"
         id="path1052" />
      <path
         d="m 39.918381,19.750833 c 0,0.179834 0.09302,0.2682 0.279052,0.2682 h 0.492994 c 0.618567,0 0.945678,-0.365869 0.945678,-1.057299 0,-0.692981 -0.327111,-1.05885 -0.945678,-1.05885 h -0.492994 c -0.186035,0 -0.279052,0.08837 -0.279052,0.2682 z m 0.418579,-0.07441 v -1.432471 h 0.300757 c 0.387573,0 0.570507,0.229443 0.570507,0.717786 0,0.485241 -0.181384,0.714685 -0.570507,0.714685 z"
         id="path1054" />
    </g>
    <g
       aria-label="MEMORYPAD"
       id="text30214"
       style="font-weight:600;font-size:4.23333px;font-family:'SF Compact Rounded';-inkscape-font-specification:'SF Compact Rounded Semi-Bold';text-align:center;letter-spacing:0.264583px;text-anchor:middle;fill:#262626;stroke-width:0.465;stop-color:#000000"
       inkscape:label="MEMORYPAD">
      <path
         d="m 14.132899,125.98884 c 0.163298,0 0.254248,-0.10542 0.254248,-0.29559 v -1.60197 h 0.0186 l 0.572574,1.40353 c 0.07648,0.19017 0.16123,0.25632 0.289388,0.25632 0.12609,0 0.210839,-0.062 0.28732,-0.25632 l 0.572575,-1.40353 h 0.0186 v 1.60197 c 0,0.1943 0.08475,0.29559 0.24598,0.29559 0.163297,0 0.254248,-0.10542 0.254248,-0.29559 v -2.20968 c 0,-0.22944 -0.117822,-0.36174 -0.322461,-0.36174 -0.183968,0 -0.287321,0.0806 -0.384472,0.33693 l -0.661458,1.64331 h -0.02067 l -0.663524,-1.64124 c -0.09715,-0.25425 -0.202572,-0.339 -0.382406,-0.339 -0.200504,0 -0.326594,0.13643 -0.326594,0.36174 v 2.20968 c 0,0.1943 0.08475,0.29559 0.248046,0.29559 z"
         id="path1057" />
      <path
         d="m 17.136331,125.61057 c 0,0.23978 0.121956,0.3576 0.37207,0.3576 h 1.2423 c 0.146761,0 0.241846,-0.0889 0.241846,-0.22738 0,-0.13849 -0.09508,-0.22944 -0.241846,-0.22944 h -1.060399 v -0.75654 h 1.008723 c 0.132292,0 0.221175,-0.0827 0.221175,-0.21291 0,-0.13022 -0.08888,-0.21497 -0.221175,-0.21497 h -1.008723 v -0.72347 h 1.066601 c 0.140559,0 0.235644,-0.0909 0.235644,-0.22738 0,-0.13642 -0.09508,-0.22944 -0.235644,-0.22944 h -1.248502 c -0.250114,0 -0.37207,0.11989 -0.37207,0.3576 z"
         id="path1059" />
      <path
         d="m 19.610596,125.98884 c 0.163297,0 0.254248,-0.10542 0.254248,-0.29559 v -1.60197 h 0.0186 l 0.572575,1.40353 c 0.07648,0.19017 0.16123,0.25632 0.289387,0.25632 0.126091,0 0.21084,-0.062 0.287321,-0.25632 l 0.572575,-1.40353 h 0.0186 v 1.60197 c 0,0.1943 0.08475,0.29559 0.24598,0.29559 0.163297,0 0.254248,-0.10542 0.254248,-0.29559 v -2.20968 c 0,-0.22944 -0.117823,-0.36174 -0.322461,-0.36174 -0.183968,0 -0.287321,0.0806 -0.384472,0.33693 l -0.661458,1.64331 h -0.02067 l -0.663525,-1.64124 c -0.09715,-0.25425 -0.202571,-0.339 -0.382405,-0.339 -0.200504,0 -0.326595,0.13643 -0.326595,0.36174 v 2.20968 c 0,0.1943 0.08475,0.29559 0.248047,0.29559 z"
         id="path1061" />
      <path
         d="m 22.510675,124.75481 c 0,0.79375 0.44235,1.2733 1.198892,1.2733 0.752408,0 1.198892,-0.47955 1.198892,-1.2733 v -0.36794 c 0,-0.80408 -0.446484,-1.29397 -1.198892,-1.29397 -0.748274,0 -1.198892,0.48989 -1.198892,1.29397 z m 0.558105,-0.37 c 0,-0.5147 0.241845,-0.82476 0.640787,-0.82476 0.398942,0 0.640787,0.31006 0.640787,0.82476 v 0.36793 c 0,0.5085 -0.241845,0.80822 -0.640787,0.80822 -0.398942,0 -0.640787,-0.29972 -0.640787,-0.80822 z"
         id="path1063" />
      <path
         d="m 25.846903,125.68705 v -0.76894 h 0.51263 l 0.415478,0.81855 c 0.09302,0.1819 0.171566,0.24391 0.318327,0.24391 0.159163,0 0.276985,-0.10748 0.276985,-0.25838 0,-0.0599 -0.0186,-0.13022 -0.04961,-0.18603 l -0.409277,-0.75035 c 0.314192,-0.13229 0.49816,-0.41754 0.49816,-0.77514 0,-0.5333 -0.374137,-0.86403 -0.977717,-0.86403 h -0.721403 c -0.293522,0 -0.421679,0.13229 -0.421679,0.42581 v 2.1146 c 0,0.19017 0.103353,0.30179 0.28112,0.30179 0.175699,0 0.276985,-0.11162 0.276985,-0.30179 z m 0,-1.18649 v -0.8971 h 0.510563 c 0.307991,0 0.491959,0.1633 0.491959,0.45062 0,0.28938 -0.181901,0.44648 -0.49816,0.44648 z"
         id="path1065" />
      <path
         d="m 28.643629,125.98884 c 0.169499,0 0.28112,-0.11575 0.276986,-0.28525 l -0.0083,-0.86197 0.740006,-1.22162 c 0.07028,-0.11989 0.09715,-0.18604 0.09715,-0.25425 0,-0.14263 -0.10542,-0.24598 -0.252181,-0.24598 -0.115755,0 -0.200504,0.0661 -0.28112,0.2129 l -0.564306,1.01286 h -0.02067 l -0.556038,-1.01286 c -0.08062,-0.15296 -0.159163,-0.2129 -0.279053,-0.2129 -0.155029,0 -0.258382,0.10128 -0.258382,0.25425 0,0.0682 0.02274,0.13022 0.08682,0.23771 l 0.746207,1.22989 -0.0083,0.86197 c -0.0041,0.1695 0.107486,0.28525 0.281119,0.28525 z"
         id="path1067" />
      <path
         d="m 30.299341,125.98884 c 0.177767,0 0.28112,-0.11162 0.28112,-0.30179 v -0.68626 h 0.535367 c 0.605647,0 0.988053,-0.3452 0.988053,-0.92811 0,-0.5581 -0.378272,-0.92604 -0.965315,-0.92604 h -0.713134 c -0.291455,0 -0.403076,0.11369 -0.403076,0.40721 v 2.1332 c 0,0.19017 0.101285,0.30179 0.276985,0.30179 z m 0.28112,-1.42213 v -0.97359 h 0.487825 c 0.305924,0 0.479557,0.17777 0.479557,0.48783 0,0.35967 -0.1757,0.48576 -0.609782,0.48576 z"
         id="path1069" />
      <path
         d="m 32.349858,125.99297 c 0.148828,0 0.23151,-0.0765 0.289387,-0.27078 l 0.157097,-0.47956 h 0.990119 l 0.159163,0.47956 c 0.05581,0.19224 0.142627,0.27078 0.293522,0.27078 0.159164,0 0.264583,-0.0951 0.264583,-0.24391 0,-0.0579 -0.01447,-0.12609 -0.04341,-0.21497 l -0.711067,-2.03812 c -0.08888,-0.26458 -0.212907,-0.37207 -0.446484,-0.37207 -0.235644,0 -0.361735,0.10956 -0.450618,0.37207 l -0.711067,2.03812 c -0.03514,0.10542 -0.04961,0.1695 -0.04961,0.22531 0,0.14056 0.105419,0.23357 0.258382,0.23357 z m 0.570507,-1.16581 0.359668,-1.14102 h 0.02687 l 0.357601,1.14102 z"
         id="path1071" />
      <path
         d="m 34.788983,125.61057 c 0,0.23978 0.124023,0.3576 0.37207,0.3576 h 0.657324 c 0.824755,0 1.260904,-0.48782 1.260904,-1.40973 0,-0.92398 -0.436149,-1.4118 -1.260904,-1.4118 h -0.657324 c -0.248047,0 -0.37207,0.11782 -0.37207,0.3576 z m 0.558105,-0.0992 v -1.90996 h 0.401009 c 0.516764,0 0.760676,0.30593 0.760676,0.95705 0,0.64699 -0.241845,0.95291 -0.760676,0.95291 z"
         id="path1073" />
    </g>
    <g
       aria-label="BIPOLAR"
       id="text30337"
       style="font-weight:600;font-size:3.175px;font-family:'SF Compact Rounded';-inkscape-font-specification:'SF Compact Rounded Semi-Bold';letter-spacing:0.264583px;fill:#262626;stroke-width:0.465;stop-color:#000000"
       inkscape:label="Y BIPOLAR">
      <path
         d="m 31.25173,81.889804 c 0,0.179834 0.09147,0.268201 0.279053,0.268201 h 0.601514 c 0.448034,0 0.736389,-0.234094 0.736389,-0.596863 0,-0.288355 -0.186035,-0.489893 -0.471289,-0.516248 v -0.0186 c 0.226343,-0.05271 0.362768,-0.224793 0.362768,-0.463538 0,-0.31936 -0.241845,-0.520898 -0.626318,-0.520898 h -0.603064 c -0.187585,0 -0.279053,0.08992 -0.279053,0.268201 z m 0.415479,-0.967383 v -0.565857 h 0.37052 c 0.195337,0 0.310058,0.10542 0.310058,0.277503 0,0.184485 -0.124023,0.288354 -0.404626,0.288354 z m 0,0.920874 v -0.629419 h 0.396875 c 0.244946,0 0.378271,0.122473 0.378271,0.322461 0,0.201538 -0.134875,0.306958 -0.465088,0.306958 z"
         id="path1076" />
      <path
         d="m 33.395268,82.173508 c 0.131775,0 0.20774,-0.08372 0.20774,-0.226343 v -1.69447 c 0,-0.142627 -0.07752,-0.226343 -0.20929,-0.226343 -0.133325,0 -0.209289,0.08372 -0.209289,0.226343 v 1.69447 c 0,0.142627 0.07751,0.226343 0.210839,0.226343 z"
         id="path1078" />
      <path
         d="m 34.242762,82.173508 c 0.133325,0 0.21084,-0.08372 0.21084,-0.226343 v -0.514697 h 0.401525 c 0.454236,0 0.74104,-0.258899 0.74104,-0.696082 0,-0.418579 -0.283703,-0.694531 -0.723986,-0.694531 H 34.33733 c -0.218592,0 -0.302308,0.08527 -0.302308,0.305408 v 1.599902 c 0,0.142627 0.07597,0.226343 0.20774,0.226343 z m 0.21084,-1.066602 v -0.730188 h 0.365869 c 0.229443,0 0.359668,0.133325 0.359668,0.365869 0,0.269751 -0.131775,0.364319 -0.457337,0.364319 z"
         id="path1080" />
      <path
         d="m 35.795638,81.247983 c 0,0.595312 0.331763,0.95498 0.89917,0.95498 0.564307,0 0.89917,-0.359668 0.89917,-0.95498 v -0.275952 c 0,-0.603064 -0.334863,-0.970484 -0.89917,-0.970484 -0.561206,0 -0.89917,0.36742 -0.89917,0.970484 z m 0.418579,-0.277503 c 0,-0.386023 0.181384,-0.618567 0.480591,-0.618567 0.299207,0 0.480591,0.232544 0.480591,0.618567 v 0.275953 c 0,0.381372 -0.181384,0.606164 -0.480591,0.606164 -0.299207,0 -0.480591,-0.224792 -0.480591,-0.606164 z"
         id="path1082" />
      <path
         d="m 39.289481,81.979721 c 0,-0.10542 -0.07752,-0.178284 -0.187585,-0.178284 h -0.734839 v -1.548742 c 0,-0.142627 -0.07752,-0.226343 -0.20929,-0.226343 -0.133325,0 -0.209289,0.08372 -0.209289,0.226343 v 1.637109 c 0,0.179834 0.09147,0.268201 0.279052,0.268201 h 0.874366 c 0.11007,0 0.187585,-0.07131 0.187585,-0.178284 z"
         id="path1084" />
      <path
         d="m 39.647082,82.176608 c 0.111621,0 0.173632,-0.05736 0.217041,-0.203088 l 0.117822,-0.359668 h 0.74259 l 0.119373,0.359668 c 0.04186,0.144177 0.10697,0.203088 0.220141,0.203088 0.119373,0 0.198438,-0.07131 0.198438,-0.182934 0,-0.04341 -0.01085,-0.09457 -0.03256,-0.161231 L 40.69663,80.303854 c -0.06666,-0.198437 -0.15968,-0.279052 -0.334863,-0.279052 -0.176734,0 -0.271302,0.08217 -0.337964,0.279052 l -0.533301,1.528589 c -0.02636,0.07906 -0.03721,0.127124 -0.03721,0.168982 0,0.10542 0.07906,0.175183 0.193787,0.175183 z m 0.42788,-0.874365 0.269751,-0.855762 h 0.02015 l 0.268201,0.855762 z"
         id="path1086" />
      <path
         d="m 41.958051,81.947165 v -0.576709 h 0.384473 l 0.311609,0.613916 c 0.06976,0.136426 0.128674,0.182935 0.238745,0.182935 0.119373,0 0.207739,-0.08062 0.207739,-0.193787 0,-0.04496 -0.01395,-0.09767 -0.03721,-0.139526 l -0.306958,-0.562757 c 0.235645,-0.09922 0.373621,-0.313159 0.373621,-0.58136 0,-0.399975 -0.280603,-0.648022 -0.733289,-0.648022 h -0.541052 c -0.220141,0 -0.31626,0.09922 -0.31626,0.31936 v 1.58595 c 0,0.142627 0.07751,0.226343 0.21084,0.226343 0.131775,0 0.207739,-0.08372 0.207739,-0.226343 z m 0,-0.889868 V 80.38447 h 0.382923 c 0.230993,0 0.36897,0.122473 0.36897,0.337963 0,0.217042 -0.136426,0.334864 -0.373621,0.334864 z"
         id="path1088" />
    </g>
    <g
       aria-label="ATTENUATE"
       id="text31130"
       style="font-weight:600;font-size:3.175px;font-family:'SF Compact Rounded';-inkscape-font-specification:'SF Compact Rounded Semi-Bold';letter-spacing:0.264583px;fill:#262626;stroke-width:0.465;stop-color:#000000"
       inkscape:label="Y ATTN">
      <path
         d="m 29.273082,98.151805 c 0.111621,0 0.173633,-0.05736 0.217041,-0.203088 l 0.117823,-0.359668 h 0.74259 l 0.119373,0.359668 c 0.04186,0.144177 0.10697,0.203088 0.220141,0.203088 0.119373,0 0.198438,-0.07131 0.198438,-0.182934 0,-0.04341 -0.01085,-0.09457 -0.03256,-0.161231 l -0.5333,-1.528589 c -0.06666,-0.198437 -0.15968,-0.279052 -0.334864,-0.279052 -0.176733,0 -0.271301,0.08217 -0.337963,0.279052 l -0.533301,1.528589 c -0.02636,0.07906 -0.03721,0.127124 -0.03721,0.168982 0,0.10542 0.07906,0.175183 0.193786,0.175183 z m 0.427881,-0.874365 0.269751,-0.855762 h 0.02015 l 0.268201,0.855762 z"
         id="path1091" />
      <path
         d="m 31.62901,98.148705 c 0.128675,0 0.20929,-0.08527 0.20929,-0.223243 v -1.556494 h 0.449585 c 0.10542,0 0.179834,-0.07286 0.179834,-0.175183 0,-0.10387 -0.07441,-0.176733 -0.179834,-0.176733 h -1.316199 c -0.103869,0 -0.179834,0.07441 -0.179834,0.176733 0,0.100769 0.07597,0.175183 0.179834,0.175183 h 0.448035 v 1.556494 c 0,0.139527 0.07906,0.223243 0.209289,0.223243 z"
         id="path1093" />
      <path
         d="m 33.336916,98.148705 c 0.128675,0 0.20929,-0.08527 0.20929,-0.223243 v -1.556494 h 0.449585 c 0.10542,0 0.179834,-0.07286 0.179834,-0.175183 0,-0.10387 -0.07441,-0.176733 -0.179834,-0.176733 h -1.316199 c -0.10387,0 -0.179834,0.07441 -0.179834,0.176733 0,0.100769 0.07596,0.175183 0.179834,0.175183 h 0.448035 v 1.556494 c 0,0.139527 0.07906,0.223243 0.209289,0.223243 z"
         id="path1095" />
      <path
         d="m 34.378196,97.865001 c 0,0.179834 0.09147,0.268201 0.279053,0.268201 h 0.931726 c 0.110071,0 0.181384,-0.06666 0.181384,-0.170533 0,-0.103869 -0.07131,-0.172082 -0.181384,-0.172082 h -0.7953 V 97.22318 h 0.756543 c 0.09922,0 0.165881,-0.06201 0.165881,-0.159681 0,-0.09767 -0.06666,-0.16123 -0.165881,-0.16123 h -0.756543 v -0.542603 h 0.799951 c 0.10542,0 0.176733,-0.06821 0.176733,-0.170532 0,-0.102319 -0.07131,-0.172082 -0.176733,-0.172082 h -0.936377 c -0.187585,0 -0.279053,0.08992 -0.279053,0.2682 z"
         id="path1097" />
      <path
         d="m 36.50313,97.927013 v -1.209229 h 0.01705 l 0.820105,1.251087 c 0.09147,0.137976 0.150378,0.179834 0.251147,0.179834 0.133325,0 0.204639,-0.08527 0.204639,-0.243396 v -1.682068 c 0,-0.137976 -0.07441,-0.221692 -0.198438,-0.221692 -0.124023,0 -0.195337,0.08217 -0.195337,0.221692 v 1.201477 h -0.01705 l -0.812353,-1.237134 c -0.08682,-0.128674 -0.145728,-0.186035 -0.246497,-0.186035 -0.142627,0 -0.215491,0.08682 -0.215491,0.252698 v 1.672766 c 0,0.137976 0.07286,0.221692 0.196888,0.221692 0.124023,0 0.195336,-0.08217 0.195336,-0.221692 z"
         id="path1099" />
      <path
         d="m 39.916358,97.404564 v -1.179773 c 0,-0.139526 -0.08062,-0.223242 -0.21084,-0.223242 -0.130224,0 -0.209289,0.08372 -0.209289,0.223242 v 1.136365 c 0,0.282153 -0.165882,0.457336 -0.434082,0.457336 -0.271302,0 -0.435633,-0.172082 -0.435633,-0.457336 v -1.136365 c 0,-0.139526 -0.08062,-0.223242 -0.210839,-0.223242 -0.130225,0 -0.20929,0.08372 -0.20929,0.223242 v 1.176672 c 0,0.468189 0.320911,0.776697 0.855762,0.776697 0.516247,0 0.854211,-0.305408 0.854211,-0.773596 z"
         id="path1101" />
      <path
         d="m 40.348373,98.151805 c 0.111621,0 0.173632,-0.05736 0.217041,-0.203088 l 0.117822,-0.359668 h 0.74259 l 0.119373,0.359668 c 0.04186,0.144177 0.10697,0.203088 0.220141,0.203088 0.119373,0 0.198438,-0.07131 0.198438,-0.182934 0,-0.04341 -0.01085,-0.09457 -0.03256,-0.161231 l -0.533301,-1.528589 c -0.06666,-0.198437 -0.15968,-0.279052 -0.334863,-0.279052 -0.176734,0 -0.271302,0.08217 -0.337964,0.279052 l -0.533301,1.528589 c -0.02635,0.07906 -0.03721,0.127124 -0.03721,0.168982 0,0.10542 0.07906,0.175183 0.193787,0.175183 z m 0.42788,-0.874365 0.269751,-0.855762 h 0.02015 l 0.268201,0.855762 z"
         id="path1103" />
      <path
         d="m 42.704301,98.148705 c 0.128674,0 0.209289,-0.08527 0.209289,-0.223243 v -1.556494 h 0.449585 c 0.10542,0 0.179834,-0.07286 0.179834,-0.175183 0,-0.10387 -0.07441,-0.176733 -0.179834,-0.176733 h -1.316199 c -0.103869,0 -0.179834,0.07441 -0.179834,0.176733 0,0.100769 0.07596,0.175183 0.179834,0.175183 h 0.448035 v 1.556494 c 0,0.139527 0.07906,0.223243 0.20929,0.223243 z"
         id="path1105" />
      <path
         d="m 43.745581,97.865001 c 0,0.179834 0.09147,0.268201 0.279052,0.268201 h 0.931726 c 0.110071,0 0.181385,-0.06666 0.181385,-0.170533 0,-0.103869 -0.07131,-0.172082 -0.181385,-0.172082 h -0.7953 V 97.22318 h 0.756543 c 0.09922,0 0.165881,-0.06201 0.165881,-0.159681 0,-0.09767 -0.06666,-0.16123 -0.165881,-0.16123 h -0.756543 v -0.542603 h 0.799951 c 0.10542,0 0.176734,-0.06821 0.176734,-0.170532 0,-0.102319 -0.07131,-0.172082 -0.176734,-0.172082 h -0.936377 c -0.187585,0 -0.279052,0.08992 -0.279052,0.2682 z"
         id="path1107" />
    </g>
    <g
       aria-label="Y"
       id="text31134"
       style="font-weight:600;font-size:4.93889px;font-family:'SF Compact Rounded';-inkscape-font-specification:'SF Compact Rounded Semi-Bold';letter-spacing:0.264583px;fill:#ffffff;stroke-width:0.465;stop-color:#000000"
       inkscape:label="Y">
      <path
         d="m 37.036172,116.96019 c 0.197749,0 0.327973,-0.13505 0.32315,-0.3328 l -0.0096,-1.00562 0.863341,-1.42524 c 0.08199,-0.13987 0.113344,-0.21704 0.113344,-0.29662 0,-0.1664 -0.12299,-0.28698 -0.294212,-0.28698 -0.135047,0 -0.233922,0.0772 -0.327973,0.24839 l -0.658358,1.18167 h -0.02411 l -0.648712,-1.18167 c -0.09405,-0.17845 -0.185691,-0.24839 -0.325562,-0.24839 -0.180867,0 -0.301445,0.11817 -0.301445,0.29663 0,0.0796 0.02653,0.15192 0.101285,0.27733 l 0.870576,1.43488 -0.0096,1.00562 c -0.0048,0.19775 0.125401,0.3328 0.327973,0.3328 z"
         id="path1110" />
    </g>
    <g
       aria-label="BIPOLAR"
       id="text31553"
       style="font-weight:600;font-size:3.175px;font-family:'SF Compact Rounded';-inkscape-font-specification:'SF Compact Rounded Semi-Bold';letter-spacing:0.264583px;fill:#262626;stroke-width:0.465;stop-color:#000000"
       inkscape:label="Y BIPOLAR">
      <path
         d="m 8.0517301,81.889804 c 0,0.179834 0.091467,0.268201 0.2790527,0.268201 h 0.6015137 c 0.4480346,0 0.7363891,-0.234094 0.7363891,-0.596863 0,-0.288355 -0.1860351,-0.489893 -0.4712891,-0.516248 v -0.0186 c 0.2263428,-0.05271 0.3627686,-0.224793 0.3627686,-0.463538 0,-0.31936 -0.2418457,-0.520898 -0.6263184,-0.520898 H 8.3307828 c -0.1875855,0 -0.2790527,0.08992 -0.2790527,0.268201 z m 0.4154785,-0.967383 v -0.565857 h 0.37052 c 0.1953369,0 0.3100586,0.10542 0.3100586,0.277503 0,0.184485 -0.1240235,0.288354 -0.4046265,0.288354 z m 0,0.920874 v -0.629419 h 0.396875 c 0.2449463,0 0.3782714,0.122473 0.3782714,0.322461 0,0.201538 -0.1348754,0.306958 -0.4650878,0.306958 z"
         id="path1113" />
      <path
         d="m 10.195268,82.173508 c 0.131775,0 0.207739,-0.08372 0.207739,-0.226343 v -1.69447 c 0,-0.142627 -0.07751,-0.226343 -0.209289,-0.226343 -0.133325,0 -0.2092897,0.08372 -0.2092897,0.226343 v 1.69447 c 0,0.142627 0.077515,0.226343 0.2108397,0.226343 z"
         id="path1115" />
      <path
         d="m 11.042761,82.173508 c 0.133326,0 0.21084,-0.08372 0.21084,-0.226343 v -0.514697 h 0.401526 c 0.454236,0 0.74104,-0.258899 0.74104,-0.696082 0,-0.418579 -0.283703,-0.694531 -0.723987,-0.694531 h -0.534851 c -0.218591,0 -0.302307,0.08527 -0.302307,0.305408 v 1.599902 c 0,0.142627 0.07597,0.226343 0.207739,0.226343 z m 0.21084,-1.066602 v -0.730188 h 0.365869 c 0.229444,0 0.359668,0.133325 0.359668,0.365869 0,0.269751 -0.131774,0.364319 -0.457336,0.364319 z"
         id="path1117" />
      <path
         d="m 12.595638,81.247983 c 0,0.595312 0.331762,0.95498 0.89917,0.95498 0.564306,0 0.89917,-0.359668 0.89917,-0.95498 v -0.275952 c 0,-0.603064 -0.334864,-0.970484 -0.89917,-0.970484 -0.561206,0 -0.89917,0.36742 -0.89917,0.970484 z m 0.418579,-0.277503 c 0,-0.386023 0.181384,-0.618567 0.480591,-0.618567 0.299206,0 0.480591,0.232544 0.480591,0.618567 v 0.275953 c 0,0.381372 -0.181385,0.606164 -0.480591,0.606164 -0.299207,0 -0.480591,-0.224792 -0.480591,-0.606164 z"
         id="path1119" />
      <path
         d="m 16.089481,81.979721 c 0,-0.10542 -0.07751,-0.178284 -0.187586,-0.178284 h -0.734838 v -1.548742 c 0,-0.142627 -0.07752,-0.226343 -0.20929,-0.226343 -0.133325,0 -0.20929,0.08372 -0.20929,0.226343 v 1.637109 c 0,0.179834 0.09147,0.268201 0.279053,0.268201 h 0.874365 c 0.110071,0 0.187586,-0.07131 0.187586,-0.178284 z"
         id="path1121" />
      <path
         d="m 16.447081,82.176608 c 0.111621,0 0.173633,-0.05736 0.217041,-0.203088 l 0.117823,-0.359668 h 0.74259 l 0.119372,0.359668 c 0.04186,0.144177 0.106971,0.203088 0.220142,0.203088 0.119373,0 0.198438,-0.07131 0.198438,-0.182934 0,-0.04341 -0.01085,-0.09457 -0.03256,-0.161231 l -0.5333,-1.528589 c -0.06666,-0.198437 -0.159681,-0.279052 -0.334864,-0.279052 -0.176733,0 -0.271301,0.08217 -0.337964,0.279052 l -0.5333,1.528589 c -0.02635,0.07906 -0.03721,0.127124 -0.03721,0.168982 0,0.10542 0.07906,0.175183 0.193786,0.175183 z m 0.427881,-0.874365 0.269751,-0.855762 h 0.02015 l 0.268201,0.855762 z"
         id="path1123" />
      <path
         d="m 18.758051,81.947165 v -0.576709 h 0.384473 l 0.311609,0.613916 c 0.06976,0.136426 0.128674,0.182935 0.238745,0.182935 0.119372,0 0.207739,-0.08062 0.207739,-0.193787 0,-0.04496 -0.01395,-0.09767 -0.03721,-0.139526 l -0.306958,-0.562757 c 0.235645,-0.09922 0.373621,-0.313159 0.373621,-0.58136 0,-0.399975 -0.280603,-0.648022 -0.733289,-0.648022 h -0.541052 c -0.220142,0 -0.31626,0.09922 -0.31626,0.31936 v 1.58595 c 0,0.142627 0.07751,0.226343 0.21084,0.226343 0.131775,0 0.207739,-0.08372 0.207739,-0.226343 z m 0,-0.889868 V 80.38447 h 0.382923 c 0.230993,0 0.368969,0.122473 0.368969,0.337963 0,0.217042 -0.136426,0.334864 -0.37362,0.334864 z"
         id="path1125" />
    </g>
    <g
       aria-label="ATTENUATE"
       id="text31557"
       style="font-weight:600;font-size:3.175px;font-family:'SF Compact Rounded';-inkscape-font-specification:'SF Compact Rounded Semi-Bold';letter-spacing:0.264583px;fill:#262626;stroke-width:0.465;stop-color:#000000"
       inkscape:label="Y ATTN">
      <path
         d="m 6.0730835,98.151805 c 0.1116211,0 0.1736328,-0.05736 0.217041,-0.203088 l 0.1178223,-0.359668 h 0.7425903 l 0.1193726,0.359668 c 0.041858,0.144177 0.1069702,0.203088 0.2201416,0.203088 0.1193725,0 0.1984374,-0.07131 0.1984374,-0.182934 0,-0.04341 -0.010852,-0.09457 -0.032556,-0.161231 L 7.1226318,96.279051 c -0.066663,-0.198437 -0.1596802,-0.279052 -0.3348633,-0.279052 -0.1767333,0 -0.2713012,0.08217 -0.3379638,0.279052 L 5.9165039,97.80764 c -0.026355,0.07906 -0.037207,0.127124 -0.037207,0.168982 0,0.10542 0.079065,0.175183 0.1937866,0.175183 z M 6.5009644,97.27744 6.7707153,96.421678 h 0.020154 l 0.2682007,0.855762 z"
         id="path1128" />
      <path
         d="m 8.4290116,98.148705 c 0.1286743,0 0.2092896,-0.08527 0.2092896,-0.223243 v -1.556494 h 0.4495849 c 0.1054199,0 0.179834,-0.07286 0.179834,-0.175183 0,-0.10387 -0.074414,-0.176733 -0.179834,-0.176733 H 7.7716874 c -0.1038696,0 -0.179834,0.07441 -0.179834,0.176733 0,0.100769 0.075964,0.175183 0.179834,0.175183 h 0.4480347 v 1.556494 c 0,0.139527 0.079065,0.223243 0.2092895,0.223243 z"
         id="path1130" />
      <path
         d="m 10.136917,98.148705 c 0.128675,0 0.20929,-0.08527 0.20929,-0.223243 v -1.556494 h 0.449585 c 0.10542,0 0.179834,-0.07286 0.179834,-0.175183 0,-0.10387 -0.07441,-0.176733 -0.179834,-0.176733 H 9.4795932 c -0.1038696,0 -0.179834,0.07441 -0.179834,0.176733 0,0.100769 0.075964,0.175183 0.179834,0.175183 h 0.4480346 v 1.556494 c 0,0.139527 0.079065,0.223243 0.2092892,0.223243 z"
         id="path1132" />
      <path
         d="m 11.178197,97.865001 c 0,0.179834 0.09147,0.268201 0.279053,0.268201 h 0.931726 c 0.110071,0 0.181384,-0.06666 0.181384,-0.170533 0,-0.103869 -0.07131,-0.172082 -0.181384,-0.172082 h -0.7953 V 97.22318 h 0.756543 c 0.09922,0 0.165881,-0.06201 0.165881,-0.159681 0,-0.09767 -0.06666,-0.16123 -0.165881,-0.16123 h -0.756543 v -0.542603 h 0.799951 c 0.10542,0 0.176733,-0.06821 0.176733,-0.170532 0,-0.102319 -0.07131,-0.172082 -0.176733,-0.172082 H 11.45725 c -0.187585,0 -0.279053,0.08992 -0.279053,0.2682 z"
         id="path1134" />
      <path
         d="m 13.303132,97.927013 v -1.209229 h 0.01705 l 0.820105,1.251087 c 0.09147,0.137976 0.150378,0.179834 0.251147,0.179834 0.133325,0 0.204639,-0.08527 0.204639,-0.243396 v -1.682068 c 0,-0.137976 -0.07441,-0.221692 -0.198438,-0.221692 -0.124023,0 -0.195337,0.08217 -0.195337,0.221692 v 1.201477 h -0.01705 l -0.812353,-1.237134 c -0.08682,-0.128674 -0.145728,-0.186035 -0.246497,-0.186035 -0.142627,0 -0.215491,0.08682 -0.215491,0.252698 v 1.672766 c 0,0.137976 0.07286,0.221692 0.196888,0.221692 0.124023,0 0.195337,-0.08217 0.195337,-0.221692 z"
         id="path1136" />
      <path
         d="m 16.716359,97.404564 v -1.179773 c 0,-0.139526 -0.08062,-0.223242 -0.21084,-0.223242 -0.130224,0 -0.209289,0.08372 -0.209289,0.223242 v 1.136365 c 0,0.282153 -0.165881,0.457336 -0.434082,0.457336 -0.271301,0 -0.435632,-0.172082 -0.435632,-0.457336 v -1.136365 c 0,-0.139526 -0.08062,-0.223242 -0.21084,-0.223242 -0.130225,0 -0.20929,0.08372 -0.20929,0.223242 v 1.176672 c 0,0.468189 0.320911,0.776697 0.855762,0.776697 0.516247,0 0.854211,-0.305408 0.854211,-0.773596 z"
         id="path1138" />
      <path
         d="m 17.148374,98.151805 c 0.111621,0 0.173633,-0.05736 0.217041,-0.203088 l 0.117822,-0.359668 h 0.74259 l 0.119373,0.359668 c 0.04186,0.144177 0.10697,0.203088 0.220142,0.203088 0.119372,0 0.198437,-0.07131 0.198437,-0.182934 0,-0.04341 -0.01085,-0.09457 -0.03256,-0.161231 l -0.533301,-1.528589 c -0.06666,-0.198437 -0.15968,-0.279052 -0.334863,-0.279052 -0.176734,0 -0.271301,0.08217 -0.337964,0.279052 l -0.533301,1.528589 c -0.02635,0.07906 -0.03721,0.127124 -0.03721,0.168982 0,0.10542 0.07906,0.175183 0.193787,0.175183 z m 0.427881,-0.874365 0.269751,-0.855762 h 0.02015 l 0.268201,0.855762 z"
         id="path1140" />
      <path
         d="m 19.504302,98.148705 c 0.128674,0 0.209289,-0.08527 0.209289,-0.223243 v -1.556494 h 0.449585 c 0.10542,0 0.179834,-0.07286 0.179834,-0.175183 0,-0.10387 -0.07441,-0.176733 -0.179834,-0.176733 h -1.316198 c -0.10387,0 -0.179834,0.07441 -0.179834,0.176733 0,0.100769 0.07596,0.175183 0.179834,0.175183 h 0.448034 v 1.556494 c 0,0.139527 0.07906,0.223243 0.20929,0.223243 z"
         id="path1142" />
      <path
         d="m 20.545582,97.865001 c 0,0.179834 0.09147,0.268201 0.279053,0.268201 h 0.931726 c 0.11007,0 0.181384,-0.06666 0.181384,-0.170533 0,-0.103869 -0.07131,-0.172082 -0.181384,-0.172082 H 20.96106 V 97.22318 h 0.756543 c 0.09922,0 0.165882,-0.06201 0.165882,-0.159681 0,-0.09767 -0.06666,-0.16123 -0.165882,-0.16123 H 20.96106 v -0.542603 h 0.799951 c 0.10542,0 0.176734,-0.06821 0.176734,-0.170532 0,-0.102319 -0.07131,-0.172082 -0.176734,-0.172082 h -0.936376 c -0.187586,0 -0.279053,0.08992 -0.279053,0.2682 z"
         id="path1144" />
    </g>
    <g
       aria-label="X"
       id="text31561"
       style="font-weight:600;font-size:4.93889px;font-family:'SF Compact Rounded';-inkscape-font-specification:'SF Compact Rounded Semi-Bold';letter-spacing:0.264583px;fill:#ffffff;stroke-width:0.465;stop-color:#000000"
       inkscape:label="Y">
      <path
         d="m 12.714635,117.19077 c 0,0.16881 0.130224,0.29421 0.311092,0.29421 0.125401,0 0.190514,-0.0506 0.332796,-0.25321 l 0.643889,-0.95498 h 0.02894 l 0.668005,0.95498 c 0.15434,0.20981 0.212217,0.25321 0.337619,0.25321 0.183279,0 0.318327,-0.1254 0.318327,-0.29421 0,-0.0772 -0.02894,-0.15193 -0.101286,-0.24598 l -0.834402,-1.11655 0.824756,-1.15032 c 0.07476,-0.1037 0.103697,-0.17122 0.103697,-0.24598 0,-0.16881 -0.132636,-0.29421 -0.311092,-0.29421 -0.130225,0 -0.202572,0.0555 -0.332796,0.25321 l -0.639066,0.98151 h -0.03135 l -0.658358,-0.98151 c -0.142282,-0.20257 -0.209806,-0.25321 -0.337619,-0.25321 -0.183279,0 -0.318327,0.1254 -0.318327,0.29421 0,0.0772 0.03135,0.15193 0.103697,0.24839 l 0.803052,1.12138 -0.807875,1.14308 c -0.07476,0.10611 -0.103697,0.17364 -0.103697,0.24598 z"
         id="path1147" />
    </g>
    <g
       id="g34051"
       transform="translate(-0.33119032,-0.11790784)"
       inkscape:label="arrows">
      <g
         aria-label="→"
         id="text32821"
         style="font-weight:600;font-size:3.88056px;font-family:'SF Compact Rounded';-inkscape-font-specification:'SF Compact Rounded Semi-Bold';letter-spacing:0.264583px;fill:#262626;stroke-width:0.465;stop-color:#000000"
         inkscape:label="fwd">
        <path
           d="m 9.7794288,19.079468 c 0,-0.05684 -0.024632,-0.115583 -0.064423,-0.153479 L 8.8036044,18.014588 c -0.045475,-0.04169 -0.096635,-0.06442 -0.1477947,-0.06442 -0.1212675,0 -0.2046389,0.08527 -0.2046389,0.19706 0,0.06253 0.026527,0.111793 0.064423,0.149689 L 8.7960252,18.579239 9.13709,18.889987 8.8244473,18.871039 H 7.2688127 c -0.1288468,0 -0.2160078,0.08527 -0.2160078,0.208429 0,0.123162 0.087161,0.208428 0.2160078,0.208428 H 8.8244473 L 9.13709,19.268948 8.7960252,19.579696 8.5155941,19.862022 c -0.037896,0.0379 -0.064423,0.08716 -0.064423,0.147795 0,0.113688 0.083371,0.19706 0.2046389,0.19706 0.05116,0 0.1023194,-0.02084 0.1458999,-0.06442 l 0.9132959,-0.909506 c 0.039791,-0.0379 0.064423,-0.09663 0.064423,-0.153479 z"
           id="path1035" />
      </g>
      <g
         aria-label="←"
         id="text32825"
         style="font-weight:600;font-size:3.88056px;font-family:'SF Compact Rounded';-inkscape-font-specification:'SF Compact Rounded Semi-Bold';letter-spacing:0.264583px;fill:#262626;stroke-width:0.465;stop-color:#000000"
         inkscape:label="rev">
        <path
           d="m 18.688886,19.079468 c 0,0.05684 0.02463,0.115583 0.06442,0.153479 l 0.913296,0.909506 c 0.04358,0.04358 0.09474,0.06442 0.1459,0.06442 0.121267,0 0.204639,-0.08337 0.204639,-0.19706 0,-0.06063 -0.02653,-0.109899 -0.06442,-0.147795 l -0.280431,-0.282326 -0.341065,-0.310748 0.312643,0.01895 h 1.555635 c 0.128847,0 0.216008,-0.08527 0.216008,-0.208428 0,-0.123163 -0.08716,-0.208429 -0.216008,-0.208429 h -1.555635 l -0.312643,0.01895 0.341065,-0.310748 0.280431,-0.282326 c 0.0379,-0.0379 0.06442,-0.08716 0.06442,-0.149689 0,-0.111794 -0.08337,-0.19706 -0.204639,-0.19706 -0.05116,0 -0.10232,0.02274 -0.147795,0.06442 l -0.911401,0.911401 c -0.03979,0.0379 -0.06442,0.09663 -0.06442,0.153479 z"
           id="path1038" />
      </g>
      <g
         aria-label="↔"
         id="text32829"
         style="font-weight:600;font-size:3.88056px;font-family:'SF Compact Rounded';-inkscape-font-specification:'SF Compact Rounded Semi-Bold';letter-spacing:0.264583px;fill:#262626;stroke-width:0.465;stop-color:#000000"
         inkscape:label="SPEED">
        <path
           d="m 12.804958,19.080932 c 0,0.05306 0.02084,0.108004 0.06063,0.144006 l 0.727605,0.716236 c 0.0379,0.03979 0.09095,0.06253 0.140216,0.06253 0.115583,0 0.191375,-0.08148 0.191375,-0.18948 0,-0.06063 -0.02463,-0.10232 -0.06063,-0.138321 l -0.255799,-0.246325 -0.200849,-0.166742 0.303169,0.01326 h 1.049722 l 0.305063,-0.01326 -0.202744,0.166742 -0.255798,0.246325 c -0.036,0.036 -0.06063,0.07769 -0.06063,0.138321 0,0.108004 0.07769,0.18948 0.191375,0.18948 0.04927,0 0.10232,-0.02274 0.14211,-0.06253 l 0.727605,-0.716236 c 0.0379,-0.036 0.05874,-0.09095 0.05874,-0.144006 0,-0.05495 -0.02084,-0.109898 -0.05874,-0.1459 l -0.727605,-0.716236 c -0.03979,-0.0379 -0.09284,-0.06063 -0.14211,-0.06063 -0.113688,0 -0.191375,0.07958 -0.191375,0.189481 0,0.05874 0.02463,0.102319 0.06063,0.138321 l 0.255798,0.246324 0.202744,0.164848 -0.305063,-0.01326 h -1.049722 l -0.303169,0.01326 0.200849,-0.164848 0.255799,-0.246324 c 0.036,-0.036 0.06063,-0.07958 0.06063,-0.138321 0,-0.109899 -0.07579,-0.189481 -0.191375,-0.189481 -0.04927,0 -0.10232,0.02274 -0.140216,0.06063 l -0.727605,0.716236 c -0.03979,0.036 -0.06063,0.09095 -0.06063,0.1459 z"
           id="path1041" />
      </g>
    </g>
    <g
       id="Guides"
       filter="url(#filter0_d_62_1219)"
       style="display:inline;stroke-width:0.0699979"
       clip-path="none"
       transform="matrix(1.0000458,0,0,1.0000458,-0.08009396,-0.0421031)">
      <g
         id="Hor Guide"
         style="display:inline;stroke-width:0.264571">
        <rect
           id="Bar"
           x="2.47998"
           y="45.759998"
           width="45.997894"
           height="0.31999999"
           fill="#454545"
           style="stroke-width:0.069998" />
        <g
           id="Ticks"
           style="stroke-width:0.264571">
          <rect
             id="Rectangle 15"
             x="2.3198199"
             y="45.279999"
             width="0.31999999"
             height="1.28"
             rx="0.16"
             fill="#454545"
             style="display:none;stroke-width:0.0699979" />
          <rect
             id="Rectangle 17"
             x="5.1997099"
             y="45.279999"
             width="0.31999999"
             height="1.28"
             rx="0.16"
             fill="#454545"
             style="stroke-width:0.0699979" />
          <rect
             id="Rectangle 18"
             x="8.0795898"
             y="45.279999"
             width="0.31999999"
             height="1.28"
             rx="0.16"
             fill="#454545"
             style="stroke-width:0.0699979" />
          <rect
             id="Rectangle 19"
             x="10.96"
             y="45.279999"
             width="0.31999999"
             height="1.28"
             rx="0.16"
             fill="#454545"
             style="stroke-width:0.0699979" />
          <rect
             id="Rectangle 20"
             x="13.8398"
             y="45.279999"
             width="0.31999999"
             height="1.28"
             rx="0.16"
             fill="#454545"
             style="stroke-width:0.0699979" />
          <rect
             id="Rectangle 21"
             x="16.7197"
             y="45.279999"
             width="0.31999999"
             height="1.28"
             rx="0.16"
             fill="#454545"
             style="stroke-width:0.0699979" />
          <rect
             id="Rectangle 22"
             x="19.5996"
             y="45.279999"
             width="0.31999999"
             height="1.28"
             rx="0.16"
             fill="#454545"
             style="stroke-width:0.0699979" />
          <rect
             id="Rectangle 23"
             x="22.48"
             y="45.279999"
             width="0.31999999"
             height="1.28"
             rx="0.16"
             fill="#454545"
             style="stroke-width:0.0699979" />
          <rect
             id="Rectangle 24"
             x="25.3599"
             y="45.279999"
             width="0.31999999"
             height="1.28"
             rx="0.16"
             fill="#454545"
             style="stroke-width:0.0699979" />
          <rect
             id="Rectangle 25"
             x="28.2397"
             y="45.279999"
             width="0.31999999"
             height="1.28"
             rx="0.16"
             fill="#454545"
             style="stroke-width:0.0699979" />
          <rect
             id="Rectangle 26"
             x="31.1196"
             y="45.279999"
             width="0.31999999"
             height="1.28"
             rx="0.16"
             fill="#454545"
             style="stroke-width:0.0699979" />
          <rect
             id="Rectangle 27"
             x="34"
             y="45.279999"
             width="0.31999999"
             height="1.28"
             rx="0.16"
             fill="#454545"
             style="stroke-width:0.0699979" />
          <rect
             id="Rectangle 28"
             x="36.879902"
             y="45.279999"
             width="0.31999999"
             height="1.28"
             rx="0.16"
             fill="#454545"
             style="stroke-width:0.0699979" />
          <rect
             id="Rectangle 29"
             x="39.7598"
             y="45.279999"
             width="0.31999999"
             height="1.28"
             rx="0.16"
             fill="#454545"
             style="stroke-width:0.0699979" />
          <rect
             id="Rectangle 30"
             x="42.639599"
             y="45.279999"
             width="0.31999999"
             height="1.28"
             rx="0.16"
             fill="#454545"
             style="stroke-width:0.0699979" />
          <rect
             id="Rectangle 31"
             x="45.52"
             y="45.279999"
             width="0.31999999"
             height="1.28"
             rx="0.16"
             fill="#454545"
             style="stroke-width:0.0699979" />
          <rect
             id="Rectangle 16"
             x="48.399899"
             y="45.279999"
             width="0.31999999"
             height="1.28"
             rx="0.16"
             fill="#454545"
             style="display:none;stroke-width:0.0699979" />
        </g>
      </g>
      <g
         id="Ver Guide"
         style="display:inline;stroke-width:0.264571">
        <rect
           id="Bar_2"
           x="25.3599"
           y="22.921053"
           width="0.31999999"
           height="45.997894"
           fill="#454545"
           style="stroke-width:0.0699979" />
        <g
           id="Ticks_2"
           style="stroke-width:0.264571">
          <rect
             id="Rectangle 4"
             x="24.8799"
             y="22.719999"
             width="1.28"
             height="0.31999999"
             rx="0.16"
             fill="#454545"
             style="display:none;stroke-width:0.0699979" />
          <rect
             id="Rectangle 10"
             x="24.8799"
             y="25.6"
             width="1.28"
             height="0.31999999"
             rx="0.16"
             fill="#454545"
             style="stroke-width:0.0699979" />
          <rect
             id="Rectangle 11"
             x="24.8799"
             y="28.48"
             width="1.28"
             height="0.31999999"
             rx="0.16"
             fill="#454545"
             style="stroke-width:0.0699979" />
          <rect
             id="Rectangle 12"
             x="24.8799"
             y="31.360001"
             width="1.28"
             height="0.31999999"
             rx="0.16"
             fill="#454545"
             style="stroke-width:0.0699979" />
          <rect
             id="Rectangle 13"
             x="24.8799"
             y="34.240002"
             width="1.28"
             height="0.31999999"
             rx="0.16"
             fill="#454545"
             style="stroke-width:0.0699979" />
          <rect
             id="Rectangle 14"
             x="24.8799"
             y="37.119999"
             width="1.28"
             height="0.31999999"
             rx="0.16"
             fill="#454545"
             style="stroke-width:0.0699979" />
          <rect
             id="Rectangle 15_2"
             x="24.8799"
             y="40"
             width="1.28"
             height="0.31999999"
             rx="0.16"
             fill="#454545"
             style="stroke-width:0.0699979" />
          <rect
             id="Rectangle 16_2"
             x="24.8799"
             y="42.880001"
             width="1.28"
             height="0.31999999"
             rx="0.16"
             fill="#454545"
             style="stroke-width:0.0699979" />
          <rect
             id="Rectangle 17_2"
             x="24.8799"
             y="45.759998"
             width="1.28"
             height="0.31999999"
             rx="0.16"
             fill="#454545"
             style="stroke-width:0.0699979" />
          <rect
             id="Rectangle 18_2"
             x="24.8799"
             y="48.639999"
             width="1.28"
             height="0.31999999"
             rx="0.16"
             fill="#454545"
             style="stroke-width:0.0699979" />
          <rect
             id="Rectangle 19_2"
             x="24.8799"
             y="51.52"
             width="1.28"
             height="0.31999999"
             rx="0.16"
             fill="#454545"
             style="stroke-width:0.0699979" />
          <rect
             id="Rectangle 20_2"
             x="24.8799"
             y="54.400002"
             width="1.28"
             height="0.31999999"
             rx="0.16"
             fill="#454545"
             style="stroke-width:0.0699979" />
          <rect
             id="Rectangle 6"
             x="24.8799"
             y="57.279999"
             width="1.28"
             height="0.31999999"
             rx="0.16"
             fill="#454545"
             style="stroke-width:0.0699979" />
          <rect
             id="Rectangle 7"
             x="24.8799"
             y="60.16"
             width="1.28"
             height="0.31999999"
             rx="0.16"
             fill="#454545"
             style="stroke-width:0.0699979" />
          <rect
             id="Rectangle 8"
             x="24.8799"
             y="63.040001"
             width="1.28"
             height="0.31999999"
             rx="0.16"
             fill="#454545"
             style="stroke-width:0.0699979" />
          <rect
             id="Rectangle 9"
             x="24.8799"
             y="65.919998"
             width="1.28"
             height="0.31999999"
             rx="0.16"
             fill="#454545"
             style="stroke-width:0.0699979" />
          <rect
             id="Rectangle 5"
             x="24.8799"
             y="68.800003"
             width="1.28"
             height="0.31999999"
             rx="0.16"
             fill="#454545"
             style="display:none;stroke-width:0.0699979" />
        </g>
      </g>
    </g>
  </g>
</svg>
